<svg 
 xmlns="http://www.w3.org/2000/svg"
 xmlns:xlink="http://www.w3.org/1999/xlink"
 width="1.27cm" height="1.27cm">
<path fill-rule="evenodd"  fill="rgb(255, 255, 255)"
 d="M33.231,25.291 L36.000,25.291 L36.000,29.250 C36.000,32.979 32.979,36.000 29.250,36.000 L25.291,36.000 L25.291,33.231 L29.250,33.231 C31.445,33.231 33.231,31.446 33.231,29.250 L33.231,25.291 ZM2.769,29.250 L2.769,25.291 L-0.000,25.291 L-0.000,29.250 C-0.000,32.979 3.021,36.000 6.750,36.000 L10.709,36.000 L10.709,33.231 L6.750,33.231 C4.555,33.231 2.769,31.446 2.769,29.250 ZM2.769,6.750 C2.769,4.554 4.555,2.769 6.750,2.769 L10.709,2.769 L10.709,-0.000 L6.750,-0.000 C3.021,-0.000 0.000,3.021 0.000,6.750 L0.000,10.707 L2.769,10.707 L2.769,6.750 ZM-0.000,19.369 L36.000,19.369 L36.000,16.629 L-0.000,16.629 L-0.000,19.369 ZM29.250,-0.000 L25.291,-0.000 L25.291,2.769 L29.250,2.769 C31.445,2.769 33.231,4.554 33.231,6.750 L33.231,10.707 L36.000,10.707 L36.000,6.750 C36.000,3.021 32.979,-0.000 29.250,-0.000 Z"/>
</svg>