<?xml version="1.0" standalone="no"?><!DOCTYPE svg PUBLIC "-//W3C//DTD SVG 1.1//EN" "http://www.w3.org/Graphics/SVG/1.1/DTD/svg11.dtd"><svg t="1598850566053" class="icon" viewBox="0 0 1024 1024" version="1.1" xmlns="http://www.w3.org/2000/svg" p-id="1190" xmlns:xlink="http://www.w3.org/1999/xlink" width="200" height="200"><defs><style type="text/css"></style></defs><path d="M1017.295381 515.625294c-8.918711 9.05797-23.377057 9.05797-32.295768 0L755.083237 303.3395c-1.513416-1.206227-2.807704-2.525091-3.989357-4.056938l-89.551638-90.944226c-1.513416-1.200084-2.807704-2.512803-3.989357-4.050794L512.000756 56.462215 38.999851 515.625294c-8.918711 9.05797-23.377057 9.05797-32.29372 0-8.918711-9.05797-8.918711-23.73954 0-32.797509L493.065647 10.095158c0.77002-1.130454 1.234898-2.394024 2.224046-3.405698 4.603734-4.677459 10.67583-6.829828 16.711063-6.682377 6.033185-0.147451 12.105281 2.004918 16.709015 6.682377 0.989147 1.011675 1.454026 2.275244 2.224046 3.405698l121.376383 123.262521L652.3102 71.16836c0 0-0.002048 0-0.002048-0.006144 0-13.114908 10.471037-23.751827 23.385249-23.751827l93.538947 0c6.459154 0 12.305978 2.660254 16.536989 6.952703 4.23306 4.298593 6.850307 10.24167 6.850307 16.799124l0 204.700282 224.675737 206.965287C1026.212043 491.885755 1026.212043 506.567325 1017.295381 515.625294zM745.851194 94.907899l-46.770497 0 0 85.959578 46.770497 47.491367L745.851194 94.907899zM163.72459 474.910509c12.916259 0 23.385249 10.630776 23.385249 23.745683l0 430.348784c0 26.235959 20.940027 47.49751 46.770497 47.49751l161.196225 0-0.002048 0L395.074513 688.656474c0-13.121052 10.471037-23.751827 23.385249-23.751827l187.079941 0c12.916259 0 23.385249 10.630776 23.385249 23.751827l0 287.846013-0.002048 0 161.196225 0c25.83047 0 46.768449-21.261551 46.768449-47.49751l-0.002048-430.348784c0-13.114908 10.468989-23.745683 23.385249-23.745683 12.914211 0 23.385249 10.630776 23.385249 23.745683l0 430.348784c0 52.469871-41.878006 94.995021-93.538947 94.995021L233.880336 1023.999997c-51.660941 0-93.538947-42.52515-93.538947-94.995021L140.34139 498.656193C140.34139 485.541285 150.810379 474.910509 163.72459 474.910509zM582.154454 976.502487l0-264.100329-140.309444 0 0 264.100329-0.002048 0L582.154454 976.502487 582.154454 976.502487z" p-id="1191"></path></svg>