<?xml version="1.0" standalone="no"?><!DOCTYPE svg PUBLIC "-//W3C//DTD SVG 1.1//EN" "http://www.w3.org/Graphics/SVG/1.1/DTD/svg11.dtd"><svg t="1598850692840" class="icon" viewBox="0 0 1024 1024" version="1.1" xmlns="http://www.w3.org/2000/svg" p-id="1991" xmlns:xlink="http://www.w3.org/1999/xlink" width="200" height="200"><defs><style type="text/css"></style></defs><path d="M758.35392 293.92896c-21.40672 100.51072-76.6976 172.57984-142.11584 172.57984-83.93216 0-151.936-117.888-151.936-263.23968 0-70.4 16.19968-134.016 42.14272-181.21728C492.88704 33.408 160.43008 314.4704 160.43008 654.2848c0 187.06432 165.21728 338.71872 368.99328 338.71872 203.7504 0 368.96768-151.6544 368.96768-338.71872C898.39616 528.42496 834.39104 401.28512 758.35392 293.92896L758.35392 293.92896zM526.39232 912.04608c-237.1584 0-187.71968-405.06368-187.71968-405.06368 3.26656 37.06368 58.56256 180.00896 195.88096 180.00896 57.7024 0 134.08256 12.63616 146.8416 89.97888C687.7952 815.8208 650.6752 912.04608 526.39232 912.04608L526.39232 912.04608z" p-id="1992" fill="#1890ff"></path></svg>