<?xml version="1.0" standalone="no"?><!DOCTYPE svg PUBLIC "-//W3C//DTD SVG 1.1//EN" "http://www.w3.org/Graphics/SVG/1.1/DTD/svg11.dtd"><svg t="1598850869581" class="icon" viewBox="0 0 1024 1024" version="1.1" xmlns="http://www.w3.org/2000/svg" p-id="4964" xmlns:xlink="http://www.w3.org/1999/xlink" width="200" height="200"><defs><style type="text/css"></style></defs><path d="M678.4 537.6c76.8-51.2 128-140.8 128-243.2 0-162.133333-132.266667-294.4-294.4-294.4s-294.4 132.266667-294.4 294.4c0 102.4 51.2 192 128 243.2-179.2 68.266667-302.933333 238.933333-302.933333 439.466667 0 25.6 17.066667 42.666667 42.666666 42.666666s42.666667-17.066667 42.666667-42.666666c0-209.066667 174.933333-384 384-384s384 170.666667 384 384c0 25.6 17.066667 42.666667 42.666667 42.666666s42.666667-21.333333 42.666666-42.666666c0-200.533333-128-371.2-302.933333-439.466667z m-375.466667-238.933333c0-115.2 93.866667-209.066667 209.066667-209.066667s209.066667 93.866667 209.066667 209.066667-93.866667 209.066667-209.066667 209.066666-209.066667-93.866667-209.066667-209.066666z" p-id="4965" fill="#1890ff"></path></svg>