<?xml version="1.0" standalone="no"?><!DOCTYPE svg PUBLIC "-//W3C//DTD SVG 1.1//EN" "http://www.w3.org/Graphics/SVG/1.1/DTD/svg11.dtd"><svg t="1598850794959" class="icon" viewBox="0 0 1024 1024" version="1.1" xmlns="http://www.w3.org/2000/svg" p-id="2845" xmlns:xlink="http://www.w3.org/1999/xlink" width="200" height="200"><defs><style type="text/css"></style></defs><path d="M921.6 264.192h-242.176l84.992-146.944c7.168-12.288 3.072-27.648-9.216-34.816-12.288-7.168-27.648-3.072-34.816 9.216l-99.84 172.544H403.456L303.616 91.648c-7.168-12.288-22.528-16.384-34.816-9.216-12.288 7.168-16.384 22.528-9.216 34.816l84.992 146.944H102.4c-56.32 0-102.4 46.08-102.4 102.4v409.6c0 56.32 46.08 102.4 102.4 102.4h819.2c56.32 0 102.4-46.08 102.4-102.4v-409.6c0-56.32-46.08-102.4-102.4-102.4z m-327.68 328.704l-131.072 81.92c-16.896 10.752-39.424-1.536-39.424-21.504v-163.84c0-19.968 22.016-32.256 39.424-21.504l131.072 81.92c16.384 9.728 16.384 33.28 0 43.008z" fill="#1890ff" p-id="2846"></path></svg>